<svg width="18.024902" height="14.000000" viewBox="0 0 18.0249 14" fill="none" xmlns="http://www.w3.org/2000/svg" xmlns:xlink="http://www.w3.org/1999/xlink">
	<desc>
			Created with Pixso.
	</desc>
	<defs/>
	<g opacity="0.300000" style="mix-blend-mode:normal">
		<path d="M18.02 1.65C17.35 1.94 16.63 2.13 15.9 2.21C16.66 1.77 17.25 1.08 17.52 0.25C16.79 0.66 16 0.95 15.17 1.11C14.47 0.4 13.5 -0.01 12.47 0C10.43 0 8.78 1.58 8.78 3.53C8.78 3.81 8.81 4.08 8.87 4.33C5.8 4.19 3.07 2.78 1.25 0.64C0.93 1.16 0.75 1.77 0.75 2.42C0.75 3.64 1.4 4.73 2.39 5.36C1.81 5.34 1.23 5.19 0.72 4.92L0.72 4.96C0.72 6.67 1.99 8.1 3.68 8.43C3.14 8.57 2.57 8.59 2.02 8.49C2.49 9.89 3.85 10.91 5.47 10.94C4.2 11.89 2.61 12.46 0.88 12.46C0.58 12.46 0.29 12.44 0 12.41C1.63 13.41 3.58 14 5.66 14C12.47 14 16.18 8.61 16.18 3.94C16.18 3.79 16.18 3.63 16.17 3.48C16.9 2.98 17.52 2.36 18.02 1.65L18.02 1.65Z" fill="#FFFFFF" fill-opacity="1.000000" fill-rule="nonzero"/>
	</g>
</svg>
